<?xml version="1.0" encoding="UTF-8" standalone="no"?>
<!DOCTYPE svg PUBLIC "-//W3C//DTD SVG 1.1//EN" "http://www.w3.org/Graphics/SVG/1.1/DTD/svg11.dtd">
<svg width="100%" height="100%" viewBox="0 0 1024 1024" version="1.1" xmlns="http://www.w3.org/2000/svg" xmlns:xlink="http://www.w3.org/1999/xlink" xml:space="preserve" xmlns:serif="http://www.serif.com/" style="fill-rule:evenodd;clip-rule:evenodd;stroke-linejoin:round;stroke-miterlimit:2;">
    <g transform="matrix(0.5,0,0,0.5,0,0)">
        <g id="Layer_x0020_1">
            <g id="Left-Book" serif:id="Left Book" transform="matrix(1,0,0,1,15.7052,-5.68844)">
                <path d="M672,374C672,344.197 647.803,320 618,320L310,320C280.197,320 256,344.197 256,374L256,1674C256,1703.8 280.197,1728 310,1728L618,1728C647.803,1728 672,1703.8 672,1674L672,374Z" style="fill:rgb(101,180,204);fill-opacity:0.86;"/>
                <rect x="256" y="1404" width="416" height="53" style="fill:rgb(101,180,204);fill-opacity:0.8;"/>
                <rect x="256" y="1298" width="416" height="53" style="fill:rgb(101,180,204);fill-opacity:0.8;"/>
                <circle cx="464" cy="892" r="103" style="fill:rgb(101,180,204);fill-opacity:0.8;"/>
                <rect x="353" y="1024" width="223" height="14" style="fill:rgb(101,180,204);fill-opacity:0.8;"/>
                <g transform="matrix(2,0,0,2,-27.5846,5.68844)">
                    <g transform="matrix(18,0,0,18,212.71,665.655)">
                        <path d="M0.71,-0.662L0.71,-0.644C0.687,-0.64 0.669,-0.632 0.657,-0.622C0.639,-0.606 0.624,-0.581 0.611,-0.548L0.38,0.015L0.362,0.015L0.114,-0.556C0.101,-0.585 0.092,-0.603 0.087,-0.609C0.079,-0.619 0.069,-0.627 0.057,-0.633C0.045,-0.639 0.029,-0.642 0.009,-0.644L0.009,-0.662L0.279,-0.662L0.279,-0.644C0.249,-0.641 0.229,-0.636 0.22,-0.628C0.211,-0.621 0.206,-0.611 0.206,-0.6C0.206,-0.583 0.214,-0.558 0.229,-0.523L0.397,-0.135L0.553,-0.519C0.569,-0.556 0.576,-0.583 0.576,-0.597C0.576,-0.607 0.571,-0.616 0.562,-0.624C0.553,-0.633 0.537,-0.639 0.514,-0.643C0.513,-0.643 0.51,-0.643 0.506,-0.644L0.506,-0.662L0.71,-0.662Z" style="fill-rule:nonzero;"/>
                    </g>
                    <g transform="matrix(18,0,0,18,223.389,665.655)">
                        <path d="M0.25,-0.46C0.318,-0.46 0.372,-0.435 0.413,-0.383C0.448,-0.339 0.465,-0.289 0.465,-0.232C0.465,-0.192 0.456,-0.151 0.437,-0.11C0.417,-0.069 0.391,-0.038 0.357,-0.018C0.323,0.003 0.286,0.014 0.245,0.014C0.177,0.014 0.124,-0.013 0.084,-0.067C0.05,-0.112 0.034,-0.163 0.034,-0.219C0.034,-0.26 0.044,-0.301 0.064,-0.342C0.085,-0.382 0.111,-0.412 0.145,-0.431C0.178,-0.451 0.213,-0.46 0.25,-0.46ZM0.235,-0.429C0.218,-0.429 0.2,-0.424 0.183,-0.413C0.165,-0.403 0.151,-0.385 0.141,-0.359C0.13,-0.334 0.125,-0.301 0.125,-0.26C0.125,-0.195 0.137,-0.139 0.163,-0.092C0.189,-0.045 0.223,-0.021 0.266,-0.021C0.297,-0.021 0.323,-0.034 0.344,-0.06C0.364,-0.086 0.375,-0.131 0.375,-0.194C0.375,-0.274 0.357,-0.336 0.323,-0.382C0.3,-0.413 0.271,-0.429 0.235,-0.429Z" style="fill-rule:nonzero;"/>
                    </g>
                    <g transform="matrix(18,0,0,18,232.389,665.655)">
                        <path d="M0.185,-0.694L0.185,-0.101C0.185,-0.073 0.187,-0.055 0.191,-0.045C0.195,-0.036 0.201,-0.029 0.21,-0.025C0.218,-0.02 0.234,-0.018 0.257,-0.018L0.257,-0L0.038,-0L0.038,-0.018C0.059,-0.018 0.073,-0.02 0.08,-0.024C0.088,-0.028 0.093,-0.035 0.098,-0.045C0.102,-0.055 0.104,-0.073 0.104,-0.101L0.104,-0.507C0.104,-0.558 0.103,-0.589 0.101,-0.6C0.098,-0.612 0.095,-0.62 0.09,-0.624C0.085,-0.628 0.078,-0.63 0.07,-0.63C0.062,-0.63 0.051,-0.628 0.038,-0.623L0.03,-0.64L0.163,-0.694L0.185,-0.694Z" style="fill-rule:nonzero;"/>
                    </g>
                    <g transform="matrix(18,0,0,18,237.39,665.655)">
                        <path d="M0.423,-0.447L0.423,-0.176C0.423,-0.125 0.425,-0.093 0.427,-0.081C0.429,-0.07 0.433,-0.062 0.439,-0.057C0.444,-0.053 0.45,-0.05 0.458,-0.05C0.468,-0.05 0.479,-0.053 0.492,-0.059L0.499,-0.042L0.365,0.014L0.343,0.014L0.343,-0.081C0.304,-0.039 0.275,-0.013 0.255,-0.002C0.235,0.008 0.213,0.014 0.191,0.014C0.166,0.014 0.144,0.006 0.126,-0.008C0.107,-0.023 0.095,-0.041 0.087,-0.064C0.08,-0.087 0.077,-0.119 0.077,-0.161L0.077,-0.36C0.077,-0.382 0.074,-0.396 0.07,-0.404C0.065,-0.412 0.059,-0.419 0.05,-0.423C0.041,-0.427 0.024,-0.43 0.001,-0.429L0.001,-0.447L0.158,-0.447L0.158,-0.148C0.158,-0.106 0.165,-0.079 0.179,-0.066C0.194,-0.053 0.211,-0.046 0.232,-0.046C0.246,-0.046 0.262,-0.051 0.28,-0.06C0.297,-0.068 0.318,-0.085 0.343,-0.11L0.343,-0.363C0.343,-0.389 0.338,-0.406 0.329,-0.415C0.32,-0.424 0.3,-0.429 0.271,-0.429L0.271,-0.447L0.423,-0.447Z" style="fill-rule:nonzero;"/>
                    </g>
                    <g transform="matrix(18,0,0,18,246.39,665.655)">
                        <path d="M0.164,-0.365C0.197,-0.398 0.216,-0.417 0.222,-0.421C0.236,-0.434 0.252,-0.443 0.269,-0.45C0.286,-0.457 0.303,-0.46 0.319,-0.46C0.347,-0.46 0.371,-0.452 0.392,-0.436C0.412,-0.42 0.425,-0.396 0.432,-0.365C0.466,-0.404 0.494,-0.43 0.517,-0.442C0.54,-0.454 0.564,-0.46 0.588,-0.46C0.612,-0.46 0.633,-0.454 0.652,-0.442C0.67,-0.43 0.685,-0.41 0.695,-0.382C0.702,-0.363 0.706,-0.334 0.706,-0.293L0.706,-0.101C0.706,-0.073 0.708,-0.054 0.712,-0.043C0.716,-0.036 0.722,-0.03 0.73,-0.025C0.739,-0.02 0.754,-0.018 0.773,-0.018L0.773,-0L0.553,-0L0.553,-0.018L0.562,-0.018C0.581,-0.018 0.596,-0.021 0.607,-0.029C0.614,-0.034 0.62,-0.042 0.623,-0.054C0.624,-0.059 0.625,-0.075 0.625,-0.101L0.625,-0.293C0.625,-0.33 0.621,-0.356 0.612,-0.371C0.599,-0.391 0.579,-0.402 0.551,-0.402C0.534,-0.402 0.516,-0.398 0.499,-0.389C0.481,-0.38 0.46,-0.364 0.436,-0.341L0.435,-0.335L0.436,-0.314L0.436,-0.101C0.436,-0.07 0.437,-0.051 0.441,-0.044C0.444,-0.036 0.451,-0.03 0.46,-0.025C0.469,-0.02 0.486,-0.018 0.508,-0.018L0.508,-0L0.282,-0L0.282,-0.018C0.307,-0.018 0.324,-0.021 0.333,-0.026C0.343,-0.032 0.349,-0.041 0.353,-0.053C0.354,-0.058 0.355,-0.074 0.355,-0.101L0.355,-0.293C0.355,-0.33 0.35,-0.356 0.339,-0.372C0.325,-0.393 0.305,-0.403 0.279,-0.403C0.261,-0.403 0.244,-0.399 0.227,-0.389C0.2,-0.375 0.179,-0.359 0.164,-0.341L0.164,-0.101C0.164,-0.072 0.166,-0.053 0.17,-0.044C0.174,-0.035 0.18,-0.029 0.188,-0.024C0.196,-0.02 0.212,-0.018 0.237,-0.018L0.237,-0L0.016,-0L0.016,-0.018C0.036,-0.018 0.05,-0.02 0.059,-0.024C0.067,-0.029 0.073,-0.036 0.077,-0.045C0.081,-0.055 0.083,-0.073 0.083,-0.101L0.083,-0.272C0.083,-0.321 0.082,-0.353 0.079,-0.367C0.077,-0.378 0.073,-0.385 0.068,-0.389C0.063,-0.393 0.057,-0.396 0.048,-0.396C0.039,-0.396 0.028,-0.393 0.016,-0.388L0.008,-0.406L0.143,-0.46L0.164,-0.46L0.164,-0.365Z" style="fill-rule:nonzero;"/>
                    </g>
                    <g transform="matrix(18,0,0,18,260.391,665.655)">
                        <path d="M0.106,-0.279C0.106,-0.212 0.122,-0.16 0.155,-0.123C0.187,-0.085 0.226,-0.066 0.27,-0.066C0.299,-0.066 0.324,-0.074 0.346,-0.09C0.368,-0.106 0.386,-0.134 0.4,-0.173L0.416,-0.163C0.409,-0.118 0.389,-0.078 0.356,-0.041C0.323,-0.005 0.282,0.014 0.232,0.014C0.179,0.014 0.133,-0.007 0.094,-0.049C0.056,-0.091 0.037,-0.147 0.037,-0.218C0.037,-0.294 0.057,-0.354 0.096,-0.397C0.135,-0.44 0.184,-0.461 0.244,-0.461C0.294,-0.461 0.335,-0.444 0.367,-0.411C0.399,-0.378 0.416,-0.334 0.416,-0.279L0.106,-0.279ZM0.106,-0.307L0.313,-0.307C0.312,-0.336 0.308,-0.356 0.303,-0.368C0.295,-0.386 0.283,-0.4 0.267,-0.411C0.251,-0.421 0.234,-0.426 0.216,-0.426C0.189,-0.426 0.165,-0.416 0.144,-0.395C0.122,-0.374 0.11,-0.345 0.106,-0.307Z" style="fill-rule:nonzero;"/>
                    </g>
                    <g transform="matrix(18,0,0,18,272.88,665.655)">
                        <path d="M0.309,-0.018L0.309,-0L0.025,-0L0.025,-0.018L0.048,-0.018C0.076,-0.018 0.096,-0.026 0.108,-0.042C0.116,-0.052 0.12,-0.077 0.12,-0.117L0.12,-0.545C0.12,-0.578 0.118,-0.601 0.113,-0.611C0.11,-0.619 0.103,-0.626 0.093,-0.632C0.079,-0.64 0.064,-0.644 0.048,-0.644L0.025,-0.644L0.025,-0.662L0.309,-0.662L0.309,-0.644L0.285,-0.644C0.258,-0.644 0.238,-0.636 0.226,-0.62C0.217,-0.61 0.213,-0.585 0.213,-0.545L0.213,-0.117C0.213,-0.084 0.215,-0.062 0.22,-0.051C0.223,-0.043 0.23,-0.036 0.24,-0.03C0.254,-0.022 0.269,-0.018 0.285,-0.018L0.309,-0.018Z" style="fill-rule:nonzero;"/>
                    </g>
                </g>
                <g id="Read" transform="matrix(2,0,0,2,-494.204,23.8794)">
                    <path d="M396.758,291.576L396.758,288.17C399.988,288.17 401.602,287.17 401.602,285.17L401.758,280.92L401.758,248.92L401.602,244.638C401.602,242.659 399.988,241.67 396.758,241.67L396.758,238.232L412.446,238.232L414.54,238.201L417.352,238.076L420.321,238.013C430.008,238.013 434.852,242.336 434.852,250.982C434.852,257.982 431.894,262.795 425.977,265.42L433.227,281.638C434.956,285.513 436.811,287.732 438.79,288.295L438.79,291.576L426.633,291.576L415.852,267.263L412.446,267.263L412.446,280.92L412.602,285.17C412.602,286.295 412.774,287.029 413.118,287.373C413.462,287.717 414.654,287.982 416.696,288.17L416.696,291.576L396.758,291.576ZM412.446,241.67L412.446,263.857L414.133,263.857C420.821,263.857 424.165,259.815 424.165,251.732C424.165,245.024 421.206,241.67 415.29,241.67L412.446,241.67Z" style="fill:rgb(242,13,13);fill-rule:nonzero;stroke:rgb(3,3,3);stroke-width:2px;"/>
                    <path d="M440.821,291.576L440.821,288.17C444.05,288.17 445.665,287.17 445.665,285.17L445.821,280.92L445.821,259.576L445.665,255.295C445.665,253.315 444.05,252.326 440.821,252.326L440.821,248.92L473.883,248.92L473.883,258.295L470.477,258.295L470.446,257.451L470.446,255.045C470.446,253.232 468.904,252.326 465.821,252.326L456.508,252.326L456.508,267.045L461.602,267.045L464.29,266.951C465.561,266.951 466.196,266.138 466.196,264.513L466.196,263.326L469.633,263.326L469.633,273.982L466.196,273.982L466.196,272.638C466.196,271.118 465.561,270.357 464.29,270.357L461.602,270.263L456.508,270.232L456.508,280.92C456.508,283.857 456.68,285.8 457.024,286.748C457.368,287.696 459.102,288.17 462.227,288.17L464.665,288.17L468.633,288.045C469.863,288.045 470.581,287.727 470.79,287.092C470.998,286.456 471.102,285.034 471.102,282.826L471.102,281.763L474.946,281.763L474.946,291.576L440.821,291.576Z" style="fill:rgb(242,13,13);fill-rule:nonzero;stroke:rgb(3,3,3);stroke-width:2px;"/>
                    <path d="M476.977,291.576L476.977,288.17L478.196,288.013C479.633,287.868 480.956,286.253 482.165,283.17L495.977,247.638L499.383,247.638L513.821,283.201C515.071,286.305 516.8,287.961 519.008,288.17L519.008,291.576L500.227,291.576L500.227,288.17C502.644,288.17 503.852,287.795 503.852,287.045C503.852,286.628 503.488,285.482 502.758,283.607L501.04,279.451L487.227,279.451L485.727,283.201C484.936,285.159 484.54,286.399 484.54,286.92C484.54,287.732 485.54,288.149 487.54,288.17L487.54,291.576L476.977,291.576ZM488.571,276.045L499.602,276.045L493.946,262.232L488.571,276.045Z" style="fill:rgb(242,13,13);fill-rule:nonzero;stroke:rgb(3,3,3);stroke-width:2px;"/>
                    <path d="M521.04,291.576L521.04,288.17C524.269,288.17 525.883,287.17 525.883,285.17L526.04,280.92L526.04,259.576L525.883,255.295C525.883,253.315 524.269,252.326 521.04,252.326L521.04,248.92L543.633,248.92C548.842,248.92 552.956,250.758 555.977,254.435C558.998,258.112 560.508,263.128 560.508,269.482C560.508,276.128 558.956,281.472 555.852,285.513C552.748,289.555 548.644,291.576 543.54,291.576L521.04,291.576ZM536.727,252.326L536.727,282.576C536.727,285.18 536.941,286.763 537.368,287.326C537.795,287.888 538.811,288.17 540.415,288.17C546.123,288.17 548.977,281.815 548.977,269.107C548.977,257.92 545.675,252.326 539.071,252.326L536.727,252.326Z" style="fill:rgb(242,13,13);fill-rule:nonzero;stroke:rgb(3,3,3);stroke-width:2px;"/>
                </g>
            </g>
            <g id="Middle-Book" serif:id="Middle Book" transform="matrix(1,0,0,1,493.621,-5.68844)">
                <path d="M672,374C672,344.197 647.803,320 618,320L310,320C280.197,320 256,344.197 256,374L256,1674C256,1703.8 280.197,1728 310,1728L618,1728C647.803,1728 672,1703.8 672,1674L672,374Z" style="fill:rgb(204,166,101);fill-opacity:0.85;"/>
                <rect x="256" y="1404" width="416" height="53" style="fill:rgb(204,166,101);fill-opacity:0.85;"/>
                <rect x="256" y="1298" width="416" height="53" style="fill:rgb(204,166,101);fill-opacity:0.85;"/>
                <circle cx="464" cy="892" r="103" style="fill:rgb(204,166,101);fill-opacity:0.85;"/>
                <rect x="353" y="1024" width="223" height="14" style="fill:rgb(204,166,101);fill-opacity:0.85;"/>
                <g id="Volume-II" serif:id="Volume II" transform="matrix(2,0,0,2,-27.5846,5.68844)">
                    <g transform="matrix(18,0,0,18,209.713,665.655)">
                        <path d="M0.71,-0.662L0.71,-0.644C0.687,-0.64 0.669,-0.632 0.657,-0.622C0.639,-0.606 0.624,-0.581 0.611,-0.548L0.38,0.015L0.362,0.015L0.114,-0.556C0.101,-0.585 0.092,-0.603 0.087,-0.609C0.079,-0.619 0.069,-0.627 0.057,-0.633C0.045,-0.639 0.029,-0.642 0.009,-0.644L0.009,-0.662L0.279,-0.662L0.279,-0.644C0.249,-0.641 0.229,-0.636 0.22,-0.628C0.211,-0.621 0.206,-0.611 0.206,-0.6C0.206,-0.583 0.214,-0.558 0.229,-0.523L0.397,-0.135L0.553,-0.519C0.569,-0.556 0.576,-0.583 0.576,-0.597C0.576,-0.607 0.571,-0.616 0.562,-0.624C0.553,-0.633 0.537,-0.639 0.514,-0.643C0.513,-0.643 0.51,-0.643 0.506,-0.644L0.506,-0.662L0.71,-0.662Z" style="fill-rule:nonzero;"/>
                    </g>
                    <g transform="matrix(18,0,0,18,220.392,665.655)">
                        <path d="M0.25,-0.46C0.318,-0.46 0.372,-0.435 0.413,-0.383C0.448,-0.339 0.465,-0.289 0.465,-0.232C0.465,-0.192 0.456,-0.151 0.437,-0.11C0.417,-0.069 0.391,-0.038 0.357,-0.018C0.323,0.003 0.286,0.014 0.245,0.014C0.177,0.014 0.124,-0.013 0.084,-0.067C0.05,-0.112 0.034,-0.163 0.034,-0.219C0.034,-0.26 0.044,-0.301 0.064,-0.342C0.085,-0.382 0.111,-0.412 0.145,-0.431C0.178,-0.451 0.213,-0.46 0.25,-0.46ZM0.235,-0.429C0.218,-0.429 0.2,-0.424 0.183,-0.413C0.165,-0.403 0.151,-0.385 0.141,-0.359C0.13,-0.334 0.125,-0.301 0.125,-0.26C0.125,-0.195 0.137,-0.139 0.163,-0.092C0.189,-0.045 0.223,-0.021 0.266,-0.021C0.297,-0.021 0.323,-0.034 0.344,-0.06C0.364,-0.086 0.375,-0.131 0.375,-0.194C0.375,-0.274 0.357,-0.336 0.323,-0.382C0.3,-0.413 0.271,-0.429 0.235,-0.429Z" style="fill-rule:nonzero;"/>
                    </g>
                    <g transform="matrix(18,0,0,18,229.392,665.655)">
                        <path d="M0.185,-0.694L0.185,-0.101C0.185,-0.073 0.187,-0.055 0.191,-0.045C0.195,-0.036 0.201,-0.029 0.21,-0.025C0.218,-0.02 0.234,-0.018 0.257,-0.018L0.257,-0L0.038,-0L0.038,-0.018C0.059,-0.018 0.073,-0.02 0.08,-0.024C0.088,-0.028 0.093,-0.035 0.098,-0.045C0.102,-0.055 0.104,-0.073 0.104,-0.101L0.104,-0.507C0.104,-0.558 0.103,-0.589 0.101,-0.6C0.098,-0.612 0.095,-0.62 0.09,-0.624C0.085,-0.628 0.078,-0.63 0.07,-0.63C0.062,-0.63 0.051,-0.628 0.038,-0.623L0.03,-0.64L0.163,-0.694L0.185,-0.694Z" style="fill-rule:nonzero;"/>
                    </g>
                    <g transform="matrix(18,0,0,18,234.393,665.655)">
                        <path d="M0.423,-0.447L0.423,-0.176C0.423,-0.125 0.425,-0.093 0.427,-0.081C0.429,-0.07 0.433,-0.062 0.439,-0.057C0.444,-0.053 0.45,-0.05 0.458,-0.05C0.468,-0.05 0.479,-0.053 0.492,-0.059L0.499,-0.042L0.365,0.014L0.343,0.014L0.343,-0.081C0.304,-0.039 0.275,-0.013 0.255,-0.002C0.235,0.008 0.213,0.014 0.191,0.014C0.166,0.014 0.144,0.006 0.126,-0.008C0.107,-0.023 0.095,-0.041 0.087,-0.064C0.08,-0.087 0.077,-0.119 0.077,-0.161L0.077,-0.36C0.077,-0.382 0.074,-0.396 0.07,-0.404C0.065,-0.412 0.059,-0.419 0.05,-0.423C0.041,-0.427 0.024,-0.43 0.001,-0.429L0.001,-0.447L0.158,-0.447L0.158,-0.148C0.158,-0.106 0.165,-0.079 0.179,-0.066C0.194,-0.053 0.211,-0.046 0.232,-0.046C0.246,-0.046 0.262,-0.051 0.28,-0.06C0.297,-0.068 0.318,-0.085 0.343,-0.11L0.343,-0.363C0.343,-0.389 0.338,-0.406 0.329,-0.415C0.32,-0.424 0.3,-0.429 0.271,-0.429L0.271,-0.447L0.423,-0.447Z" style="fill-rule:nonzero;"/>
                    </g>
                    <g transform="matrix(18,0,0,18,243.393,665.655)">
                        <path d="M0.164,-0.365C0.197,-0.398 0.216,-0.417 0.222,-0.421C0.236,-0.434 0.252,-0.443 0.269,-0.45C0.286,-0.457 0.303,-0.46 0.319,-0.46C0.347,-0.46 0.371,-0.452 0.392,-0.436C0.412,-0.42 0.425,-0.396 0.432,-0.365C0.466,-0.404 0.494,-0.43 0.517,-0.442C0.54,-0.454 0.564,-0.46 0.588,-0.46C0.612,-0.46 0.633,-0.454 0.652,-0.442C0.67,-0.43 0.685,-0.41 0.695,-0.382C0.702,-0.363 0.706,-0.334 0.706,-0.293L0.706,-0.101C0.706,-0.073 0.708,-0.054 0.712,-0.043C0.716,-0.036 0.722,-0.03 0.73,-0.025C0.739,-0.02 0.754,-0.018 0.773,-0.018L0.773,-0L0.553,-0L0.553,-0.018L0.562,-0.018C0.581,-0.018 0.596,-0.021 0.607,-0.029C0.614,-0.034 0.62,-0.042 0.623,-0.054C0.624,-0.059 0.625,-0.075 0.625,-0.101L0.625,-0.293C0.625,-0.33 0.621,-0.356 0.612,-0.371C0.599,-0.391 0.579,-0.402 0.551,-0.402C0.534,-0.402 0.516,-0.398 0.499,-0.389C0.481,-0.38 0.46,-0.364 0.436,-0.341L0.435,-0.335L0.436,-0.314L0.436,-0.101C0.436,-0.07 0.437,-0.051 0.441,-0.044C0.444,-0.036 0.451,-0.03 0.46,-0.025C0.469,-0.02 0.486,-0.018 0.508,-0.018L0.508,-0L0.282,-0L0.282,-0.018C0.307,-0.018 0.324,-0.021 0.333,-0.026C0.343,-0.032 0.349,-0.041 0.353,-0.053C0.354,-0.058 0.355,-0.074 0.355,-0.101L0.355,-0.293C0.355,-0.33 0.35,-0.356 0.339,-0.372C0.325,-0.393 0.305,-0.403 0.279,-0.403C0.261,-0.403 0.244,-0.399 0.227,-0.389C0.2,-0.375 0.179,-0.359 0.164,-0.341L0.164,-0.101C0.164,-0.072 0.166,-0.053 0.17,-0.044C0.174,-0.035 0.18,-0.029 0.188,-0.024C0.196,-0.02 0.212,-0.018 0.237,-0.018L0.237,-0L0.016,-0L0.016,-0.018C0.036,-0.018 0.05,-0.02 0.059,-0.024C0.067,-0.029 0.073,-0.036 0.077,-0.045C0.081,-0.055 0.083,-0.073 0.083,-0.101L0.083,-0.272C0.083,-0.321 0.082,-0.353 0.079,-0.367C0.077,-0.378 0.073,-0.385 0.068,-0.389C0.063,-0.393 0.057,-0.396 0.048,-0.396C0.039,-0.396 0.028,-0.393 0.016,-0.388L0.008,-0.406L0.143,-0.46L0.164,-0.46L0.164,-0.365Z" style="fill-rule:nonzero;"/>
                    </g>
                    <g transform="matrix(18,0,0,18,257.394,665.655)">
                        <path d="M0.106,-0.279C0.106,-0.212 0.122,-0.16 0.155,-0.123C0.187,-0.085 0.226,-0.066 0.27,-0.066C0.299,-0.066 0.324,-0.074 0.346,-0.09C0.368,-0.106 0.386,-0.134 0.4,-0.173L0.416,-0.163C0.409,-0.118 0.389,-0.078 0.356,-0.041C0.323,-0.005 0.282,0.014 0.232,0.014C0.179,0.014 0.133,-0.007 0.094,-0.049C0.056,-0.091 0.037,-0.147 0.037,-0.218C0.037,-0.294 0.057,-0.354 0.096,-0.397C0.135,-0.44 0.184,-0.461 0.244,-0.461C0.294,-0.461 0.335,-0.444 0.367,-0.411C0.399,-0.378 0.416,-0.334 0.416,-0.279L0.106,-0.279ZM0.106,-0.307L0.313,-0.307C0.312,-0.336 0.308,-0.356 0.303,-0.368C0.295,-0.386 0.283,-0.4 0.267,-0.411C0.251,-0.421 0.234,-0.426 0.216,-0.426C0.189,-0.426 0.165,-0.416 0.144,-0.395C0.122,-0.374 0.11,-0.345 0.106,-0.307Z" style="fill-rule:nonzero;"/>
                    </g>
                    <g transform="matrix(18,0,0,18,269.883,665.655)">
                        <path d="M0.309,-0.018L0.309,-0L0.025,-0L0.025,-0.018L0.048,-0.018C0.076,-0.018 0.096,-0.026 0.108,-0.042C0.116,-0.052 0.12,-0.077 0.12,-0.117L0.12,-0.545C0.12,-0.578 0.118,-0.601 0.113,-0.611C0.11,-0.619 0.103,-0.626 0.093,-0.632C0.079,-0.64 0.064,-0.644 0.048,-0.644L0.025,-0.644L0.025,-0.662L0.309,-0.662L0.309,-0.644L0.285,-0.644C0.258,-0.644 0.238,-0.636 0.226,-0.62C0.217,-0.61 0.213,-0.585 0.213,-0.545L0.213,-0.117C0.213,-0.084 0.215,-0.062 0.22,-0.051C0.223,-0.043 0.23,-0.036 0.24,-0.03C0.254,-0.022 0.269,-0.018 0.285,-0.018L0.309,-0.018Z" style="fill-rule:nonzero;"/>
                    </g>
                    <g transform="matrix(18,0,0,18,275.877,665.655)">
                        <path d="M0.309,-0.018L0.309,-0L0.025,-0L0.025,-0.018L0.048,-0.018C0.076,-0.018 0.096,-0.026 0.108,-0.042C0.116,-0.052 0.12,-0.077 0.12,-0.117L0.12,-0.545C0.12,-0.578 0.118,-0.601 0.113,-0.611C0.11,-0.619 0.103,-0.626 0.093,-0.632C0.079,-0.64 0.064,-0.644 0.048,-0.644L0.025,-0.644L0.025,-0.662L0.309,-0.662L0.309,-0.644L0.285,-0.644C0.258,-0.644 0.238,-0.636 0.226,-0.62C0.217,-0.61 0.213,-0.585 0.213,-0.545L0.213,-0.117C0.213,-0.084 0.215,-0.062 0.22,-0.051C0.223,-0.043 0.23,-0.036 0.24,-0.03C0.254,-0.022 0.269,-0.018 0.285,-0.018L0.309,-0.018Z" style="fill-rule:nonzero;"/>
                    </g>
                </g>
                <g id="Read1" serif:id="Read" transform="matrix(2,0,0,2,-494.204,23.8794)">
                    <path d="M396.758,291.576L396.758,288.17C399.988,288.17 401.602,287.17 401.602,285.17L401.758,280.92L401.758,248.92L401.602,244.638C401.602,242.659 399.988,241.67 396.758,241.67L396.758,238.232L412.446,238.232L414.54,238.201L417.352,238.076L420.321,238.013C430.008,238.013 434.852,242.336 434.852,250.982C434.852,257.982 431.894,262.795 425.977,265.42L433.227,281.638C434.956,285.513 436.811,287.732 438.79,288.295L438.79,291.576L426.633,291.576L415.852,267.263L412.446,267.263L412.446,280.92L412.602,285.17C412.602,286.295 412.774,287.029 413.118,287.373C413.462,287.717 414.654,287.982 416.696,288.17L416.696,291.576L396.758,291.576ZM412.446,241.67L412.446,263.857L414.133,263.857C420.821,263.857 424.165,259.815 424.165,251.732C424.165,245.024 421.206,241.67 415.29,241.67L412.446,241.67Z" style="fill:rgb(242,13,13);fill-rule:nonzero;stroke:rgb(3,3,3);stroke-width:2px;"/>
                    <path d="M440.821,291.576L440.821,288.17C444.05,288.17 445.665,287.17 445.665,285.17L445.821,280.92L445.821,259.576L445.665,255.295C445.665,253.315 444.05,252.326 440.821,252.326L440.821,248.92L473.883,248.92L473.883,258.295L470.477,258.295L470.446,257.451L470.446,255.045C470.446,253.232 468.904,252.326 465.821,252.326L456.508,252.326L456.508,267.045L461.602,267.045L464.29,266.951C465.561,266.951 466.196,266.138 466.196,264.513L466.196,263.326L469.633,263.326L469.633,273.982L466.196,273.982L466.196,272.638C466.196,271.118 465.561,270.357 464.29,270.357L461.602,270.263L456.508,270.232L456.508,280.92C456.508,283.857 456.68,285.8 457.024,286.748C457.368,287.696 459.102,288.17 462.227,288.17L464.665,288.17L468.633,288.045C469.863,288.045 470.581,287.727 470.79,287.092C470.998,286.456 471.102,285.034 471.102,282.826L471.102,281.763L474.946,281.763L474.946,291.576L440.821,291.576Z" style="fill:rgb(242,13,13);fill-rule:nonzero;stroke:rgb(3,3,3);stroke-width:2px;"/>
                    <path d="M476.977,291.576L476.977,288.17L478.196,288.013C479.633,287.868 480.956,286.253 482.165,283.17L495.977,247.638L499.383,247.638L513.821,283.201C515.071,286.305 516.8,287.961 519.008,288.17L519.008,291.576L500.227,291.576L500.227,288.17C502.644,288.17 503.852,287.795 503.852,287.045C503.852,286.628 503.488,285.482 502.758,283.607L501.04,279.451L487.227,279.451L485.727,283.201C484.936,285.159 484.54,286.399 484.54,286.92C484.54,287.732 485.54,288.149 487.54,288.17L487.54,291.576L476.977,291.576ZM488.571,276.045L499.602,276.045L493.946,262.232L488.571,276.045Z" style="fill:rgb(242,13,13);fill-rule:nonzero;stroke:rgb(3,3,3);stroke-width:2px;"/>
                    <path d="M521.04,291.576L521.04,288.17C524.269,288.17 525.883,287.17 525.883,285.17L526.04,280.92L526.04,259.576L525.883,255.295C525.883,253.315 524.269,252.326 521.04,252.326L521.04,248.92L543.633,248.92C548.842,248.92 552.956,250.758 555.977,254.435C558.998,258.112 560.508,263.128 560.508,269.482C560.508,276.128 558.956,281.472 555.852,285.513C552.748,289.555 548.644,291.576 543.54,291.576L521.04,291.576ZM536.727,252.326L536.727,282.576C536.727,285.18 536.941,286.763 537.368,287.326C537.795,287.888 538.811,288.17 540.415,288.17C546.123,288.17 548.977,281.815 548.977,269.107C548.977,257.92 545.675,252.326 539.071,252.326L536.727,252.326Z" style="fill:rgb(242,13,13);fill-rule:nonzero;stroke:rgb(3,3,3);stroke-width:2px;"/>
                </g>
            </g>
            <g id="Right-Book" serif:id="Right Book" transform="matrix(0.993551,-0.113385,0.113385,0.993551,918.122,53.5257)">
                <path d="M672,374C672,344.197 647.803,320 618,320L310,320C280.197,320 256,344.197 256,374L256,1674C256,1703.8 280.197,1728 310,1728L618,1728C647.803,1728 672,1703.8 672,1674L672,374Z" style="fill:rgb(204,133,101);fill-opacity:0.85;"/>
                <rect x="256" y="1404" width="416" height="53" style="fill:rgb(204,133,101);fill-opacity:0.85;"/>
                <rect x="256" y="1298" width="416" height="53" style="fill:rgb(204,133,101);fill-opacity:0.85;"/>
                <circle cx="464" cy="892" r="103" style="fill:rgb(204,133,101);fill-opacity:0.85;"/>
                <rect x="353" y="1024" width="223" height="14" style="fill:rgb(204,133,101);fill-opacity:0.85;"/>
                <g id="Volume-II1" serif:id="Volume II" transform="matrix(1.99996,-0.0132888,0.0132888,1.99996,-36.5561,10.9092)">
                    <g transform="matrix(18,0,0,18,206.716,665.655)">
                        <path d="M0.71,-0.662L0.71,-0.644C0.687,-0.64 0.669,-0.632 0.657,-0.622C0.639,-0.606 0.624,-0.581 0.611,-0.548L0.38,0.015L0.362,0.015L0.114,-0.556C0.101,-0.585 0.092,-0.603 0.087,-0.609C0.079,-0.619 0.069,-0.627 0.057,-0.633C0.045,-0.639 0.029,-0.642 0.009,-0.644L0.009,-0.662L0.279,-0.662L0.279,-0.644C0.249,-0.641 0.229,-0.636 0.22,-0.628C0.211,-0.621 0.206,-0.611 0.206,-0.6C0.206,-0.583 0.214,-0.558 0.229,-0.523L0.397,-0.135L0.553,-0.519C0.569,-0.556 0.576,-0.583 0.576,-0.597C0.576,-0.607 0.571,-0.616 0.562,-0.624C0.553,-0.633 0.537,-0.639 0.514,-0.643C0.513,-0.643 0.51,-0.643 0.506,-0.644L0.506,-0.662L0.71,-0.662Z" style="fill-rule:nonzero;"/>
                    </g>
                    <g transform="matrix(18,0,0,18,217.395,665.655)">
                        <path d="M0.25,-0.46C0.318,-0.46 0.372,-0.435 0.413,-0.383C0.448,-0.339 0.465,-0.289 0.465,-0.232C0.465,-0.192 0.456,-0.151 0.437,-0.11C0.417,-0.069 0.391,-0.038 0.357,-0.018C0.323,0.003 0.286,0.014 0.245,0.014C0.177,0.014 0.124,-0.013 0.084,-0.067C0.05,-0.112 0.034,-0.163 0.034,-0.219C0.034,-0.26 0.044,-0.301 0.064,-0.342C0.085,-0.382 0.111,-0.412 0.145,-0.431C0.178,-0.451 0.213,-0.46 0.25,-0.46ZM0.235,-0.429C0.218,-0.429 0.2,-0.424 0.183,-0.413C0.165,-0.403 0.151,-0.385 0.141,-0.359C0.13,-0.334 0.125,-0.301 0.125,-0.26C0.125,-0.195 0.137,-0.139 0.163,-0.092C0.189,-0.045 0.223,-0.021 0.266,-0.021C0.297,-0.021 0.323,-0.034 0.344,-0.06C0.364,-0.086 0.375,-0.131 0.375,-0.194C0.375,-0.274 0.357,-0.336 0.323,-0.382C0.3,-0.413 0.271,-0.429 0.235,-0.429Z" style="fill-rule:nonzero;"/>
                    </g>
                    <g transform="matrix(18,0,0,18,226.395,665.655)">
                        <path d="M0.185,-0.694L0.185,-0.101C0.185,-0.073 0.187,-0.055 0.191,-0.045C0.195,-0.036 0.201,-0.029 0.21,-0.025C0.218,-0.02 0.234,-0.018 0.257,-0.018L0.257,-0L0.038,-0L0.038,-0.018C0.059,-0.018 0.073,-0.02 0.08,-0.024C0.088,-0.028 0.093,-0.035 0.098,-0.045C0.102,-0.055 0.104,-0.073 0.104,-0.101L0.104,-0.507C0.104,-0.558 0.103,-0.589 0.101,-0.6C0.098,-0.612 0.095,-0.62 0.09,-0.624C0.085,-0.628 0.078,-0.63 0.07,-0.63C0.062,-0.63 0.051,-0.628 0.038,-0.623L0.03,-0.64L0.163,-0.694L0.185,-0.694Z" style="fill-rule:nonzero;"/>
                    </g>
                    <g transform="matrix(18,0,0,18,231.396,665.655)">
                        <path d="M0.423,-0.447L0.423,-0.176C0.423,-0.125 0.425,-0.093 0.427,-0.081C0.429,-0.07 0.433,-0.062 0.439,-0.057C0.444,-0.053 0.45,-0.05 0.458,-0.05C0.468,-0.05 0.479,-0.053 0.492,-0.059L0.499,-0.042L0.365,0.014L0.343,0.014L0.343,-0.081C0.304,-0.039 0.275,-0.013 0.255,-0.002C0.235,0.008 0.213,0.014 0.191,0.014C0.166,0.014 0.144,0.006 0.126,-0.008C0.107,-0.023 0.095,-0.041 0.087,-0.064C0.08,-0.087 0.077,-0.119 0.077,-0.161L0.077,-0.36C0.077,-0.382 0.074,-0.396 0.07,-0.404C0.065,-0.412 0.059,-0.419 0.05,-0.423C0.041,-0.427 0.024,-0.43 0.001,-0.429L0.001,-0.447L0.158,-0.447L0.158,-0.148C0.158,-0.106 0.165,-0.079 0.179,-0.066C0.194,-0.053 0.211,-0.046 0.232,-0.046C0.246,-0.046 0.262,-0.051 0.28,-0.06C0.297,-0.068 0.318,-0.085 0.343,-0.11L0.343,-0.363C0.343,-0.389 0.338,-0.406 0.329,-0.415C0.32,-0.424 0.3,-0.429 0.271,-0.429L0.271,-0.447L0.423,-0.447Z" style="fill-rule:nonzero;"/>
                    </g>
                    <g transform="matrix(18,0,0,18,240.396,665.655)">
                        <path d="M0.164,-0.365C0.197,-0.398 0.216,-0.417 0.222,-0.421C0.236,-0.434 0.252,-0.443 0.269,-0.45C0.286,-0.457 0.303,-0.46 0.319,-0.46C0.347,-0.46 0.371,-0.452 0.392,-0.436C0.412,-0.42 0.425,-0.396 0.432,-0.365C0.466,-0.404 0.494,-0.43 0.517,-0.442C0.54,-0.454 0.564,-0.46 0.588,-0.46C0.612,-0.46 0.633,-0.454 0.652,-0.442C0.67,-0.43 0.685,-0.41 0.695,-0.382C0.702,-0.363 0.706,-0.334 0.706,-0.293L0.706,-0.101C0.706,-0.073 0.708,-0.054 0.712,-0.043C0.716,-0.036 0.722,-0.03 0.73,-0.025C0.739,-0.02 0.754,-0.018 0.773,-0.018L0.773,-0L0.553,-0L0.553,-0.018L0.562,-0.018C0.581,-0.018 0.596,-0.021 0.607,-0.029C0.614,-0.034 0.62,-0.042 0.623,-0.054C0.624,-0.059 0.625,-0.075 0.625,-0.101L0.625,-0.293C0.625,-0.33 0.621,-0.356 0.612,-0.371C0.599,-0.391 0.579,-0.402 0.551,-0.402C0.534,-0.402 0.516,-0.398 0.499,-0.389C0.481,-0.38 0.46,-0.364 0.436,-0.341L0.435,-0.335L0.436,-0.314L0.436,-0.101C0.436,-0.07 0.437,-0.051 0.441,-0.044C0.444,-0.036 0.451,-0.03 0.46,-0.025C0.469,-0.02 0.486,-0.018 0.508,-0.018L0.508,-0L0.282,-0L0.282,-0.018C0.307,-0.018 0.324,-0.021 0.333,-0.026C0.343,-0.032 0.349,-0.041 0.353,-0.053C0.354,-0.058 0.355,-0.074 0.355,-0.101L0.355,-0.293C0.355,-0.33 0.35,-0.356 0.339,-0.372C0.325,-0.393 0.305,-0.403 0.279,-0.403C0.261,-0.403 0.244,-0.399 0.227,-0.389C0.2,-0.375 0.179,-0.359 0.164,-0.341L0.164,-0.101C0.164,-0.072 0.166,-0.053 0.17,-0.044C0.174,-0.035 0.18,-0.029 0.188,-0.024C0.196,-0.02 0.212,-0.018 0.237,-0.018L0.237,-0L0.016,-0L0.016,-0.018C0.036,-0.018 0.05,-0.02 0.059,-0.024C0.067,-0.029 0.073,-0.036 0.077,-0.045C0.081,-0.055 0.083,-0.073 0.083,-0.101L0.083,-0.272C0.083,-0.321 0.082,-0.353 0.079,-0.367C0.077,-0.378 0.073,-0.385 0.068,-0.389C0.063,-0.393 0.057,-0.396 0.048,-0.396C0.039,-0.396 0.028,-0.393 0.016,-0.388L0.008,-0.406L0.143,-0.46L0.164,-0.46L0.164,-0.365Z" style="fill-rule:nonzero;"/>
                    </g>
                    <g transform="matrix(18,0,0,18,254.397,665.655)">
                        <path d="M0.106,-0.279C0.106,-0.212 0.122,-0.16 0.155,-0.123C0.187,-0.085 0.226,-0.066 0.27,-0.066C0.299,-0.066 0.324,-0.074 0.346,-0.09C0.368,-0.106 0.386,-0.134 0.4,-0.173L0.416,-0.163C0.409,-0.118 0.389,-0.078 0.356,-0.041C0.323,-0.005 0.282,0.014 0.232,0.014C0.179,0.014 0.133,-0.007 0.094,-0.049C0.056,-0.091 0.037,-0.147 0.037,-0.218C0.037,-0.294 0.057,-0.354 0.096,-0.397C0.135,-0.44 0.184,-0.461 0.244,-0.461C0.294,-0.461 0.335,-0.444 0.367,-0.411C0.399,-0.378 0.416,-0.334 0.416,-0.279L0.106,-0.279ZM0.106,-0.307L0.313,-0.307C0.312,-0.336 0.308,-0.356 0.303,-0.368C0.295,-0.386 0.283,-0.4 0.267,-0.411C0.251,-0.421 0.234,-0.426 0.216,-0.426C0.189,-0.426 0.165,-0.416 0.144,-0.395C0.122,-0.374 0.11,-0.345 0.106,-0.307Z" style="fill-rule:nonzero;"/>
                    </g>
                    <g transform="matrix(18,0,0,18,266.886,665.655)">
                        <path d="M0.309,-0.018L0.309,-0L0.025,-0L0.025,-0.018L0.048,-0.018C0.076,-0.018 0.096,-0.026 0.108,-0.042C0.116,-0.052 0.12,-0.077 0.12,-0.117L0.12,-0.545C0.12,-0.578 0.118,-0.601 0.113,-0.611C0.11,-0.619 0.103,-0.626 0.093,-0.632C0.079,-0.64 0.064,-0.644 0.048,-0.644L0.025,-0.644L0.025,-0.662L0.309,-0.662L0.309,-0.644L0.285,-0.644C0.258,-0.644 0.238,-0.636 0.226,-0.62C0.217,-0.61 0.213,-0.585 0.213,-0.545L0.213,-0.117C0.213,-0.084 0.215,-0.062 0.22,-0.051C0.223,-0.043 0.23,-0.036 0.24,-0.03C0.254,-0.022 0.269,-0.018 0.285,-0.018L0.309,-0.018Z" style="fill-rule:nonzero;"/>
                    </g>
                    <g transform="matrix(18,0,0,18,272.88,665.655)">
                        <path d="M0.309,-0.018L0.309,-0L0.025,-0L0.025,-0.018L0.048,-0.018C0.076,-0.018 0.096,-0.026 0.108,-0.042C0.116,-0.052 0.12,-0.077 0.12,-0.117L0.12,-0.545C0.12,-0.578 0.118,-0.601 0.113,-0.611C0.11,-0.619 0.103,-0.626 0.093,-0.632C0.079,-0.64 0.064,-0.644 0.048,-0.644L0.025,-0.644L0.025,-0.662L0.309,-0.662L0.309,-0.644L0.285,-0.644C0.258,-0.644 0.238,-0.636 0.226,-0.62C0.217,-0.61 0.213,-0.585 0.213,-0.545L0.213,-0.117C0.213,-0.084 0.215,-0.062 0.22,-0.051C0.223,-0.043 0.23,-0.036 0.24,-0.03C0.254,-0.022 0.269,-0.018 0.285,-0.018L0.309,-0.018Z" style="fill-rule:nonzero;"/>
                    </g>
                    <g transform="matrix(18,0,0,18,278.874,665.655)">
                        <path d="M0.309,-0.018L0.309,-0L0.025,-0L0.025,-0.018L0.048,-0.018C0.076,-0.018 0.096,-0.026 0.108,-0.042C0.116,-0.052 0.12,-0.077 0.12,-0.117L0.12,-0.545C0.12,-0.578 0.118,-0.601 0.113,-0.611C0.11,-0.619 0.103,-0.626 0.093,-0.632C0.079,-0.64 0.064,-0.644 0.048,-0.644L0.025,-0.644L0.025,-0.662L0.309,-0.662L0.309,-0.644L0.285,-0.644C0.258,-0.644 0.238,-0.636 0.226,-0.62C0.217,-0.61 0.213,-0.585 0.213,-0.545L0.213,-0.117C0.213,-0.084 0.215,-0.062 0.22,-0.051C0.223,-0.043 0.23,-0.036 0.24,-0.03C0.254,-0.022 0.269,-0.018 0.285,-0.018L0.309,-0.018Z" style="fill-rule:nonzero;"/>
                    </g>
                </g>
                <g id="Read2" serif:id="Read" transform="matrix(1.99993,-0.0172172,0.0172172,1.99993,-495.222,11.2505)">
                    <path d="M396.758,291.576L396.758,288.17C399.988,288.17 401.602,287.17 401.602,285.17L401.758,280.92L401.758,248.92L401.602,244.638C401.602,242.659 399.988,241.67 396.758,241.67L396.758,238.232L412.446,238.232L414.54,238.201L417.352,238.076L420.321,238.013C430.008,238.013 434.852,242.336 434.852,250.982C434.852,257.982 431.894,262.795 425.977,265.42L433.227,281.638C434.956,285.513 436.811,287.732 438.79,288.295L438.79,291.576L426.633,291.576L415.852,267.263L412.446,267.263L412.446,280.92L412.602,285.17C412.602,286.295 412.774,287.029 413.118,287.373C413.462,287.717 414.654,287.982 416.696,288.17L416.696,291.576L396.758,291.576ZM412.446,241.67L412.446,263.857L414.133,263.857C420.821,263.857 424.165,259.815 424.165,251.732C424.165,245.024 421.206,241.67 415.29,241.67L412.446,241.67Z" style="fill:rgb(242,13,13);fill-rule:nonzero;stroke:rgb(3,3,3);stroke-width:2px;"/>
                    <path d="M440.821,291.576L440.821,288.17C444.05,288.17 445.665,287.17 445.665,285.17L445.821,280.92L445.821,259.576L445.665,255.295C445.665,253.315 444.05,252.326 440.821,252.326L440.821,248.92L473.883,248.92L473.883,258.295L470.477,258.295L470.446,257.451L470.446,255.045C470.446,253.232 468.904,252.326 465.821,252.326L456.508,252.326L456.508,267.045L461.602,267.045L464.29,266.951C465.561,266.951 466.196,266.138 466.196,264.513L466.196,263.326L469.633,263.326L469.633,273.982L466.196,273.982L466.196,272.638C466.196,271.118 465.561,270.357 464.29,270.357L461.602,270.263L456.508,270.232L456.508,280.92C456.508,283.857 456.68,285.8 457.024,286.748C457.368,287.696 459.102,288.17 462.227,288.17L464.665,288.17L468.633,288.045C469.863,288.045 470.581,287.727 470.79,287.092C470.998,286.456 471.102,285.034 471.102,282.826L471.102,281.763L474.946,281.763L474.946,291.576L440.821,291.576Z" style="fill:rgb(242,13,13);fill-rule:nonzero;stroke:rgb(3,3,3);stroke-width:2px;"/>
                    <path d="M476.977,291.576L476.977,288.17L478.196,288.013C479.633,287.868 480.956,286.253 482.165,283.17L495.977,247.638L499.383,247.638L513.821,283.201C515.071,286.305 516.8,287.961 519.008,288.17L519.008,291.576L500.227,291.576L500.227,288.17C502.644,288.17 503.852,287.795 503.852,287.045C503.852,286.628 503.488,285.482 502.758,283.607L501.04,279.451L487.227,279.451L485.727,283.201C484.936,285.159 484.54,286.399 484.54,286.92C484.54,287.732 485.54,288.149 487.54,288.17L487.54,291.576L476.977,291.576ZM488.571,276.045L499.602,276.045L493.946,262.232L488.571,276.045Z" style="fill:rgb(242,13,13);fill-rule:nonzero;stroke:rgb(3,3,3);stroke-width:2px;"/>
                    <path d="M521.04,291.576L521.04,288.17C524.269,288.17 525.883,287.17 525.883,285.17L526.04,280.92L526.04,259.576L525.883,255.295C525.883,253.315 524.269,252.326 521.04,252.326L521.04,248.92L543.633,248.92C548.842,248.92 552.956,250.758 555.977,254.435C558.998,258.112 560.508,263.128 560.508,269.482C560.508,276.128 558.956,281.472 555.852,285.513C552.748,289.555 548.644,291.576 543.54,291.576L521.04,291.576ZM536.727,252.326L536.727,282.576C536.727,285.18 536.941,286.763 537.368,287.326C537.795,287.888 538.811,288.17 540.415,288.17C546.123,288.17 548.977,281.815 548.977,269.107C548.977,257.92 545.675,252.326 539.071,252.326L536.727,252.326Z" style="fill:rgb(242,13,13);fill-rule:nonzero;stroke:rgb(3,3,3);stroke-width:2px;"/>
                </g>
            </g>
            <rect x="0" y="0" width="2048" height="2048" style="fill:none;"/>
        </g>
    </g>
</svg>
